<svg width="806" height="97" viewBox="0 0 806 97" fill="none" xmlns="http://www.w3.org/2000/svg">
<g filter="url(#filter0_d_116_16)">
<rect x="162" y="69" width="482" height="4" fill="#F2C94C"/>
</g>
<path d="M163.656 15.616C163.56 14.8 163.368 14.008 163.08 13.24C162.84 12.424 162.456 11.824 161.928 11.44C161.544 11.2 161.064 11.032 160.488 10.936C159.912 10.84 159.12 10.792 158.112 10.792L157.752 10.504L157.536 7.768L157.68 7.48C158.112 7.528 158.688 7.576 159.408 7.624C160.176 7.672 160.944 7.72 161.712 7.768C162.528 7.816 163.296 7.864 164.016 7.912C164.736 7.912 165.312 7.912 165.744 7.912H169.992C170.424 7.912 170.976 7.912 171.648 7.912C172.368 7.864 173.112 7.816 173.88 7.768C174.696 7.72 175.464 7.672 176.184 7.624C176.952 7.576 177.576 7.528 178.056 7.48L178.2 7.768L177.984 10.504L177.696 10.792C176.496 10.792 175.608 10.864 175.032 11.008C174.504 11.104 174.072 11.272 173.736 11.512C172.728 12.184 172.152 13.552 172.008 15.616C171.96 16.096 171.912 16.6 171.864 17.128C171.864 17.608 171.864 18.256 171.864 19.072C171.864 19.84 171.864 20.824 171.864 22.024C171.864 23.224 171.864 24.736 171.864 26.56V36.208C171.864 38.08 171.864 39.616 171.864 40.816C171.864 41.968 171.864 42.952 171.864 43.768C171.912 44.536 171.936 45.232 171.936 45.856C171.984 46.432 172.056 47.128 172.152 47.944C172.2 48.904 172.752 49.384 173.808 49.384H180.504C182.088 49.384 183.336 49.36 184.248 49.312C185.208 49.216 185.952 49.024 186.48 48.736C187.008 48.4 187.416 47.944 187.704 47.368C187.992 46.792 188.256 46 188.496 44.992L188.712 44.704H192.024L190.728 54.568L190.152 55.288C189.768 55.24 189.168 55.192 188.352 55.144C187.536 55.144 186.672 55.12 185.76 55.072C184.848 55.072 183.936 55.048 183.024 55C182.16 55 181.488 55 181.008 55H165.744C165.408 55 164.856 55 164.088 55C163.368 55.048 162.6 55.096 161.784 55.144C160.968 55.192 160.176 55.24 159.408 55.288C158.64 55.336 158.064 55.384 157.68 55.432L157.536 55.144L157.752 52.408L158.112 52.12C159.936 52.12 161.184 51.856 161.856 51.328C162.24 50.992 162.6 50.464 162.936 49.744C163.32 49.024 163.56 48.184 163.656 47.224C163.704 46.744 163.728 46.096 163.728 45.28C163.776 44.416 163.8 43.528 163.8 42.616C163.848 41.704 163.872 40.864 163.872 40.096C163.872 39.28 163.872 38.704 163.872 38.368V26.632C163.872 23.992 163.848 21.688 163.8 19.72C163.8 17.704 163.752 16.336 163.656 15.616ZM220.558 7.12L232.942 39.808C233.374 41.008 233.758 42.016 234.094 42.832C234.43 43.648 234.694 44.344 234.886 44.92C235.126 45.496 235.318 45.976 235.462 46.36C235.654 46.696 235.822 47.008 235.966 47.296C236.542 48.496 237.118 49.432 237.694 50.104C238.318 50.728 238.918 51.208 239.494 51.544C240.118 51.832 240.742 52 241.366 52.048C241.99 52.096 242.614 52.12 243.238 52.12L243.598 52.408L243.814 55.144L243.67 55.432C243.334 55.432 242.83 55.408 242.158 55.36C241.486 55.312 240.79 55.264 240.07 55.216C239.35 55.168 238.654 55.12 237.982 55.072C237.358 55.024 236.878 55 236.542 55H231.286C230.95 55 230.398 55.024 229.63 55.072C228.862 55.12 228.046 55.168 227.182 55.216C226.366 55.264 225.574 55.312 224.806 55.36C224.038 55.408 223.486 55.432 223.15 55.432L223.006 55.144L223.222 52.408L223.51 52.12C224.758 52.12 225.694 51.976 226.318 51.688C226.99 51.352 227.326 50.488 227.326 49.096C227.326 48.328 227.182 47.248 226.894 45.856C226.654 44.416 226.054 42.64 225.094 40.528L223.582 37.072H210.982L209.542 40.528C208.678 42.64 208.03 44.44 207.598 45.928C207.166 47.416 206.95 48.472 206.95 49.096C206.95 50.248 207.19 51.04 207.67 51.472C208.15 51.904 209.014 52.12 210.262 52.12L210.622 52.408L210.838 55.144L210.694 55.432C210.358 55.432 209.83 55.408 209.11 55.36C208.39 55.312 207.622 55.264 206.806 55.216C206.038 55.168 205.294 55.12 204.574 55.072C203.854 55.024 203.326 55 202.99 55H198.742C198.406 55 197.902 55.024 197.23 55.072C196.558 55.12 195.862 55.168 195.142 55.216C194.422 55.264 193.726 55.312 193.054 55.36C192.43 55.408 191.95 55.432 191.614 55.432L191.542 55.144L191.686 52.408L192.046 52.12C192.67 52.12 193.294 52.072 193.918 51.976C194.542 51.88 195.166 51.664 195.79 51.328C196.414 50.992 197.014 50.536 197.59 49.96C198.214 49.336 198.838 48.544 199.462 47.584C199.606 47.296 199.822 46.864 200.11 46.288C200.398 45.664 200.854 44.584 201.478 43.048C202.102 41.512 202.966 39.328 204.07 36.496C205.174 33.664 206.638 29.896 208.462 25.192L214.654 9.28L219.766 7.12H220.558ZM212.206 31.816H221.638L217.03 19.072L212.206 31.816ZM296.83 18.496C296.686 17.44 296.23 16.552 295.462 15.832C294.694 15.064 293.734 14.464 292.582 14.032C291.478 13.6 290.23 13.288 288.838 13.096C287.494 12.904 286.15 12.808 284.806 12.808C280.534 12.808 277.222 13.888 274.87 16.048C273.046 17.68 271.726 19.864 270.91 22.6C270.094 25.288 269.686 28.216 269.686 31.384C269.686 34.408 270.094 37.072 270.91 39.376C271.774 41.68 272.926 43.624 274.366 45.208C275.854 46.744 277.606 47.92 279.622 48.736C281.638 49.504 283.846 49.888 286.246 49.888C288.31 49.888 290.686 49.672 293.374 49.24C296.11 48.76 298.678 47.872 301.078 46.576L301.942 48.16L300.214 51.328C297.718 52.864 295.198 53.992 292.654 54.712C290.158 55.432 287.59 55.792 284.95 55.792C281.35 55.792 278.086 55.216 275.158 54.064C272.23 52.912 269.71 51.28 267.598 49.168C265.534 47.008 263.926 44.464 262.774 41.536C261.622 38.56 261.046 35.272 261.046 31.672C261.046 28.312 261.55 25.144 262.558 22.168C263.614 19.144 265.15 16.528 267.166 14.32C269.23 12.112 271.75 10.36 274.726 9.064C277.75 7.768 281.254 7.12 285.238 7.12C286.198 7.12 287.326 7.168 288.622 7.264C289.918 7.312 291.286 7.456 292.726 7.696C294.166 7.888 295.606 8.2 297.046 8.632C298.534 9.016 299.95 9.52 301.294 10.144L301.51 10.792L300.574 18.784H297.046L296.83 18.496ZM332.355 7.12L344.739 39.808C345.171 41.008 345.555 42.016 345.891 42.832C346.227 43.648 346.491 44.344 346.683 44.92C346.923 45.496 347.115 45.976 347.259 46.36C347.451 46.696 347.619 47.008 347.763 47.296C348.339 48.496 348.915 49.432 349.491 50.104C350.115 50.728 350.715 51.208 351.291 51.544C351.915 51.832 352.539 52 353.163 52.048C353.787 52.096 354.411 52.12 355.035 52.12L355.395 52.408L355.611 55.144L355.467 55.432C355.131 55.432 354.627 55.408 353.955 55.36C353.283 55.312 352.587 55.264 351.867 55.216C351.147 55.168 350.451 55.12 349.779 55.072C349.155 55.024 348.675 55 348.339 55H343.083C342.747 55 342.195 55.024 341.427 55.072C340.659 55.12 339.843 55.168 338.979 55.216C338.163 55.264 337.371 55.312 336.603 55.36C335.835 55.408 335.283 55.432 334.947 55.432L334.803 55.144L335.019 52.408L335.307 52.12C336.555 52.12 337.491 51.976 338.115 51.688C338.787 51.352 339.123 50.488 339.123 49.096C339.123 48.328 338.979 47.248 338.691 45.856C338.451 44.416 337.851 42.64 336.891 40.528L335.379 37.072H322.779L321.339 40.528C320.475 42.64 319.827 44.44 319.395 45.928C318.963 47.416 318.747 48.472 318.747 49.096C318.747 50.248 318.987 51.04 319.467 51.472C319.947 51.904 320.811 52.12 322.059 52.12L322.419 52.408L322.635 55.144L322.491 55.432C322.155 55.432 321.627 55.408 320.907 55.36C320.187 55.312 319.419 55.264 318.603 55.216C317.835 55.168 317.091 55.12 316.371 55.072C315.651 55.024 315.123 55 314.787 55H310.539C310.203 55 309.699 55.024 309.027 55.072C308.355 55.12 307.659 55.168 306.938 55.216C306.219 55.264 305.523 55.312 304.851 55.36C304.226 55.408 303.746 55.432 303.41 55.432L303.338 55.144L303.482 52.408L303.842 52.12C304.466 52.12 305.091 52.072 305.715 51.976C306.339 51.88 306.963 51.664 307.587 51.328C308.211 50.992 308.811 50.536 309.387 49.96C310.011 49.336 310.635 48.544 311.259 47.584C311.403 47.296 311.619 46.864 311.907 46.288C312.195 45.664 312.651 44.584 313.275 43.048C313.899 41.512 314.763 39.328 315.867 36.496C316.971 33.664 318.435 29.896 320.259 25.192L326.451 9.28L331.563 7.12H332.355ZM324.003 31.816H333.435L328.827 19.072L324.003 31.816ZM378.306 55.432C377.922 55.384 377.37 55.336 376.65 55.288C375.978 55.24 375.234 55.192 374.418 55.144C373.65 55.096 372.882 55.048 372.114 55C371.394 55 370.77 55 370.242 55H365.994C365.418 55 364.746 55 363.978 55C363.21 55.048 362.442 55.096 361.674 55.144C360.906 55.192 360.162 55.24 359.442 55.288C358.77 55.336 358.266 55.384 357.93 55.432L357.786 55.144L358.002 52.408L358.362 52.12C360.186 52.12 361.434 51.904 362.106 51.472C363.114 50.8 363.738 49.408 363.978 47.296C364.026 46.48 364.05 45.232 364.05 43.552C364.098 41.824 364.122 40.096 364.122 38.368V22.528C364.122 20.848 364.098 19.528 364.05 18.568C364.002 17.56 363.93 16.576 363.834 15.616C363.642 14.32 363.426 13.384 363.186 12.808C362.994 12.232 362.682 11.776 362.25 11.44C361.866 11.2 361.386 11.032 360.81 10.936C360.282 10.84 359.466 10.792 358.362 10.792L358.002 10.504L357.786 7.768L357.93 7.48C359.178 7.624 360.402 7.744 361.602 7.84C362.85 7.888 363.834 7.912 364.554 7.912H370.026C371.13 7.912 372.378 7.888 373.77 7.84C375.21 7.792 376.458 7.768 377.514 7.768C383.226 7.768 387.546 8.848 390.474 11.008C393.402 13.12 394.866 16.288 394.866 20.512C394.866 23.536 393.978 26.296 392.202 28.792C390.474 31.24 387.882 33.376 384.426 35.2C386.058 37.648 387.426 39.64 388.53 41.176C389.682 42.712 390.666 43.936 391.482 44.848C392.586 46.144 393.618 47.224 394.578 48.088C395.538 48.952 396.474 49.672 397.386 50.248C398.346 50.824 399.33 51.256 400.338 51.544C401.346 51.832 402.474 52.024 403.722 52.12L404.154 52.408L404.298 55.144L404.154 55.432C402.33 55.528 400.746 55.6 399.402 55.648C398.058 55.744 397.074 55.792 396.45 55.792C393.906 55.792 391.626 55.096 389.61 53.704C387.642 52.264 385.53 49.84 383.274 46.432C382.746 45.664 382.17 44.8 381.546 43.84C380.97 42.88 380.37 41.944 379.746 41.032C379.17 40.072 378.618 39.16 378.09 38.296C377.562 37.432 377.13 36.688 376.794 36.064H372.114C372.114 37.696 372.114 39.112 372.114 40.312C372.114 41.464 372.114 42.472 372.114 43.336C372.162 44.2 372.21 44.944 372.258 45.568C372.306 46.192 372.354 46.768 372.402 47.296C372.594 49.504 373.122 50.896 373.986 51.472C374.322 51.712 374.754 51.88 375.282 51.976C375.81 52.072 376.698 52.12 377.946 52.12L378.234 52.408L378.45 55.144L378.306 55.432ZM375.786 30.736C379.29 30.736 382.026 29.896 383.994 28.216C386.01 26.536 387.018 24.208 387.018 21.232C387.018 18.544 386.13 16.6 384.354 15.4C382.578 14.152 379.746 13.528 375.858 13.528H372.474C372.33 15.448 372.234 16.936 372.186 17.992C372.138 19.048 372.114 20.056 372.114 21.016V28.072C372.114 29.08 372.234 29.776 372.474 30.16C372.714 30.544 373.17 30.736 373.842 30.736H375.786ZM430.511 7.12L442.895 39.808C443.327 41.008 443.711 42.016 444.047 42.832C444.383 43.648 444.647 44.344 444.839 44.92C445.079 45.496 445.271 45.976 445.415 46.36C445.607 46.696 445.775 47.008 445.919 47.296C446.495 48.496 447.071 49.432 447.647 50.104C448.271 50.728 448.871 51.208 449.447 51.544C450.071 51.832 450.695 52 451.319 52.048C451.943 52.096 452.567 52.12 453.191 52.12L453.551 52.408L453.767 55.144L453.623 55.432C453.287 55.432 452.783 55.408 452.111 55.36C451.439 55.312 450.743 55.264 450.023 55.216C449.303 55.168 448.607 55.12 447.935 55.072C447.311 55.024 446.831 55 446.495 55H441.239C440.903 55 440.351 55.024 439.583 55.072C438.815 55.12 437.999 55.168 437.135 55.216C436.319 55.264 435.527 55.312 434.759 55.36C433.991 55.408 433.439 55.432 433.103 55.432L432.959 55.144L433.175 52.408L433.463 52.12C434.711 52.12 435.647 51.976 436.271 51.688C436.943 51.352 437.279 50.488 437.279 49.096C437.279 48.328 437.135 47.248 436.847 45.856C436.607 44.416 436.007 42.64 435.047 40.528L433.535 37.072H420.935L419.495 40.528C418.631 42.64 417.983 44.44 417.551 45.928C417.119 47.416 416.903 48.472 416.903 49.096C416.903 50.248 417.143 51.04 417.623 51.472C418.103 51.904 418.967 52.12 420.215 52.12L420.575 52.408L420.791 55.144L420.647 55.432C420.311 55.432 419.783 55.408 419.063 55.36C418.343 55.312 417.575 55.264 416.759 55.216C415.991 55.168 415.247 55.12 414.527 55.072C413.807 55.024 413.279 55 412.943 55H408.695C408.359 55 407.855 55.024 407.183 55.072C406.511 55.12 405.815 55.168 405.095 55.216C404.375 55.264 403.679 55.312 403.007 55.36C402.383 55.408 401.903 55.432 401.567 55.432L401.495 55.144L401.639 52.408L401.999 52.12C402.623 52.12 403.247 52.072 403.871 51.976C404.495 51.88 405.119 51.664 405.743 51.328C406.367 50.992 406.967 50.536 407.543 49.96C408.167 49.336 408.791 48.544 409.415 47.584C409.559 47.296 409.775 46.864 410.063 46.288C410.351 45.664 410.807 44.584 411.431 43.048C412.055 41.512 412.919 39.328 414.023 36.496C415.127 33.664 416.591 29.896 418.415 25.192L424.607 9.28L429.719 7.12H430.511ZM422.159 31.816H431.591L426.983 19.072L422.159 31.816ZM469.242 55.792L458.01 24.544C457.482 23.104 457.026 21.904 456.642 20.944C456.306 19.984 455.994 19.168 455.706 18.496C455.466 17.824 455.25 17.272 455.058 16.84C454.866 16.408 454.698 16 454.554 15.616C454.026 14.416 453.474 13.504 452.898 12.88C452.37 12.208 451.818 11.728 451.242 11.44C450.666 11.104 450.066 10.912 449.442 10.864C448.866 10.816 448.266 10.792 447.642 10.792L447.282 10.504L447.138 7.768L447.21 7.48C447.546 7.528 448.026 7.576 448.65 7.624C449.322 7.672 450.018 7.72 450.738 7.768C451.458 7.816 452.154 7.864 452.826 7.912C453.498 7.912 454.002 7.912 454.338 7.912H459.666C460.002 7.912 460.554 7.888 461.322 7.84C462.09 7.792 462.882 7.744 463.698 7.696C464.562 7.648 465.378 7.6 466.146 7.552C466.914 7.504 467.466 7.48 467.802 7.48L467.946 7.768L467.73 10.504L467.37 10.792C465.978 10.792 464.898 10.96 464.13 11.296C463.362 11.584 462.978 12.424 462.978 13.816C462.978 14.92 463.338 16.48 464.058 18.496C464.826 20.464 465.762 22.96 466.866 25.984L471.258 37.792C472.074 39.712 472.746 41.56 473.274 43.336C473.802 45.064 474.33 46.504 474.858 47.656C475.242 46.552 475.77 45.16 476.442 43.48C477.114 41.752 477.834 39.856 478.602 37.792L482.994 25.984C484.098 22.96 485.01 20.464 485.73 18.496C486.498 16.48 486.882 14.92 486.882 13.816C486.882 12.424 486.498 11.584 485.73 11.296C484.962 10.96 483.882 10.792 482.49 10.792L482.13 10.504L481.986 7.768L482.13 7.48C482.466 7.528 482.994 7.576 483.714 7.624C484.434 7.672 485.178 7.72 485.946 7.768C486.714 7.816 487.458 7.864 488.178 7.912C488.898 7.912 489.426 7.912 489.762 7.912H494.01C494.346 7.912 494.826 7.888 495.45 7.84C496.122 7.792 496.818 7.744 497.538 7.696C498.258 7.648 498.954 7.6 499.626 7.552C500.298 7.504 500.802 7.48 501.138 7.48L501.282 7.768L501.066 10.504L500.706 10.792C500.082 10.792 499.482 10.816 498.906 10.864C498.33 10.912 497.754 11.104 497.178 11.44C496.65 11.728 496.098 12.208 495.522 12.88C494.994 13.504 494.442 14.416 493.866 15.616C493.77 15.856 493.65 16.096 493.506 16.336C493.41 16.576 493.242 16.96 493.002 17.488C492.81 17.968 492.522 18.664 492.138 19.576C491.754 20.488 491.25 21.736 490.626 23.32C490.002 24.856 489.21 26.8 488.25 29.152C487.338 31.504 486.234 34.36 484.938 37.72C484.266 39.4 483.57 41.152 482.85 42.976C482.13 44.752 481.458 46.456 480.834 48.088C480.21 49.672 479.658 51.088 479.178 52.336C478.698 53.584 478.362 54.472 478.17 55L470.106 55.792H469.242ZM522.69 7.12L535.074 39.808C535.506 41.008 535.89 42.016 536.226 42.832C536.562 43.648 536.826 44.344 537.018 44.92C537.258 45.496 537.45 45.976 537.594 46.36C537.786 46.696 537.954 47.008 538.098 47.296C538.674 48.496 539.25 49.432 539.826 50.104C540.45 50.728 541.05 51.208 541.626 51.544C542.25 51.832 542.874 52 543.498 52.048C544.122 52.096 544.746 52.12 545.37 52.12L545.73 52.408L545.946 55.144L545.802 55.432C545.466 55.432 544.962 55.408 544.29 55.36C543.618 55.312 542.922 55.264 542.202 55.216C541.482 55.168 540.786 55.12 540.114 55.072C539.49 55.024 539.01 55 538.674 55H533.418C533.082 55 532.53 55.024 531.762 55.072C530.994 55.12 530.178 55.168 529.314 55.216C528.498 55.264 527.706 55.312 526.938 55.36C526.17 55.408 525.618 55.432 525.282 55.432L525.138 55.144L525.354 52.408L525.642 52.12C526.89 52.12 527.826 51.976 528.45 51.688C529.122 51.352 529.458 50.488 529.458 49.096C529.458 48.328 529.314 47.248 529.026 45.856C528.786 44.416 528.186 42.64 527.226 40.528L525.714 37.072H513.114L511.674 40.528C510.81 42.64 510.162 44.44 509.73 45.928C509.298 47.416 509.082 48.472 509.082 49.096C509.082 50.248 509.322 51.04 509.802 51.472C510.282 51.904 511.146 52.12 512.394 52.12L512.754 52.408L512.97 55.144L512.826 55.432C512.49 55.432 511.962 55.408 511.242 55.36C510.522 55.312 509.754 55.264 508.938 55.216C508.17 55.168 507.426 55.12 506.706 55.072C505.986 55.024 505.458 55 505.122 55H500.874C500.538 55 500.034 55.024 499.362 55.072C498.69 55.12 497.994 55.168 497.274 55.216C496.554 55.264 495.858 55.312 495.186 55.36C494.562 55.408 494.082 55.432 493.746 55.432L493.674 55.144L493.818 52.408L494.178 52.12C494.802 52.12 495.426 52.072 496.05 51.976C496.674 51.88 497.298 51.664 497.922 51.328C498.546 50.992 499.146 50.536 499.722 49.96C500.346 49.336 500.97 48.544 501.594 47.584C501.738 47.296 501.954 46.864 502.242 46.288C502.53 45.664 502.986 44.584 503.61 43.048C504.234 41.512 505.098 39.328 506.202 36.496C507.306 33.664 508.77 29.896 510.594 25.192L516.786 9.28L521.898 7.12H522.69ZM514.338 31.816H523.77L519.162 19.072L514.338 31.816ZM599.458 7.768L599.314 10.504L598.954 10.792C598.234 10.792 597.514 10.84 596.794 10.936C596.122 10.984 595.57 11.176 595.138 11.512C594.754 11.848 594.346 12.28 593.914 12.808C593.53 13.336 593.266 14.272 593.122 15.616C593.074 16.288 593.026 16.912 592.978 17.488C592.978 18.064 592.954 18.736 592.906 19.504C592.906 20.272 592.906 21.208 592.906 22.312C592.906 23.416 592.906 24.832 592.906 26.56V37.792C592.906 40.48 592.906 42.688 592.906 44.416C592.954 46.144 592.978 47.632 592.978 48.88C593.026 50.08 593.074 51.16 593.122 52.12C593.218 53.08 593.314 54.136 593.41 55.288L592.834 55.648L583.978 55.288L583.258 54.424L561.01 20.872C561.106 21.736 561.154 23.128 561.154 25.048C561.202 26.92 561.226 29.104 561.226 31.6V36.928C561.226 37.504 561.226 38.272 561.226 39.232C561.226 40.144 561.226 41.104 561.226 42.112C561.274 43.12 561.298 44.104 561.298 45.064C561.346 45.976 561.394 46.72 561.442 47.296C561.538 48.496 561.802 49.408 562.234 50.032C562.666 50.656 563.122 51.112 563.602 51.4C563.986 51.784 564.49 52 565.114 52.048C565.738 52.096 566.53 52.12 567.49 52.12L567.85 52.408L568.066 55.144L567.922 55.432C567.538 55.432 566.986 55.408 566.266 55.36C565.594 55.312 564.874 55.264 564.106 55.216C563.386 55.168 562.666 55.12 561.946 55.072C561.274 55.024 560.77 55 560.434 55H556.186C555.85 55 555.298 55.024 554.53 55.072C553.762 55.12 552.97 55.168 552.154 55.216C551.338 55.264 550.546 55.312 549.778 55.36C549.01 55.408 548.458 55.432 548.122 55.432L547.978 55.144L548.194 52.408L548.554 52.12C549.418 52.12 550.138 52.096 550.714 52.048C551.338 51.952 551.89 51.736 552.37 51.4C552.706 51.16 553.114 50.776 553.594 50.248C554.074 49.672 554.386 48.688 554.53 47.296C554.578 46.96 554.602 46.576 554.602 46.144C554.65 45.664 554.674 45.088 554.674 44.416C554.674 43.744 554.674 42.928 554.674 41.968C554.674 41.008 554.674 39.808 554.674 38.368V26.632C554.674 24.952 554.674 23.536 554.674 22.384C554.674 21.232 554.674 20.248 554.674 19.432C554.674 18.616 554.65 17.92 554.602 17.344C554.602 16.768 554.578 16.192 554.53 15.616C554.434 14.608 554.146 13.744 553.666 13.024C553.234 12.304 552.802 11.8 552.37 11.512C551.938 11.128 551.386 10.912 550.714 10.864C550.09 10.816 549.37 10.792 548.554 10.792L548.194 10.504L547.978 7.768L548.122 7.48C548.458 7.48 548.938 7.504 549.562 7.552C550.234 7.6 550.906 7.648 551.578 7.696C552.25 7.744 552.898 7.792 553.522 7.84C554.194 7.888 554.698 7.912 555.034 7.912H561.154C561.538 7.912 562.018 7.888 562.594 7.84C563.17 7.792 563.674 7.72 564.106 7.624L564.466 7.84C564.61 8.512 564.97 9.448 565.546 10.648C566.122 11.8 566.818 13.12 567.634 14.608C568.498 16.048 569.41 17.584 570.37 19.216C571.33 20.8 572.29 22.384 573.25 23.968C574.978 26.848 576.514 29.368 577.858 31.528C579.202 33.64 580.402 35.488 581.458 37.072C582.514 38.656 583.426 40 584.194 41.104C584.962 42.16 585.61 43.048 586.138 43.768C586.138 42.52 586.138 41.296 586.138 40.096C586.186 38.896 586.21 37.672 586.21 36.424V26.632C586.21 24.952 586.21 23.536 586.21 22.384C586.21 21.232 586.186 20.248 586.138 19.432C586.138 18.616 586.114 17.92 586.066 17.344C586.066 16.768 586.042 16.192 585.994 15.616C585.898 14.8 585.682 14.056 585.346 13.384C585.058 12.664 584.578 12.04 583.906 11.512C583.474 11.128 582.898 10.912 582.178 10.864C581.506 10.816 580.786 10.792 580.018 10.792L579.73 10.504L579.514 7.768L579.658 7.48C579.994 7.48 580.474 7.504 581.098 7.552C581.722 7.6 582.346 7.648 582.97 7.696C583.642 7.744 584.29 7.792 584.914 7.84C585.538 7.888 586.018 7.912 586.354 7.912H592.618C592.954 7.912 593.434 7.912 594.058 7.912C594.682 7.864 595.33 7.816 596.002 7.768C596.674 7.72 597.322 7.672 597.946 7.624C598.57 7.576 599.05 7.528 599.386 7.48L599.458 7.768ZM628.792 7.12L641.176 39.808C641.608 41.008 641.992 42.016 642.328 42.832C642.664 43.648 642.928 44.344 643.12 44.92C643.36 45.496 643.552 45.976 643.696 46.36C643.888 46.696 644.056 47.008 644.2 47.296C644.776 48.496 645.352 49.432 645.928 50.104C646.552 50.728 647.152 51.208 647.728 51.544C648.352 51.832 648.976 52 649.6 52.048C650.224 52.096 650.848 52.12 651.472 52.12L651.832 52.408L652.048 55.144L651.904 55.432C651.568 55.432 651.064 55.408 650.392 55.36C649.72 55.312 649.024 55.264 648.304 55.216C647.584 55.168 646.888 55.12 646.216 55.072C645.592 55.024 645.112 55 644.776 55H639.52C639.184 55 638.632 55.024 637.864 55.072C637.096 55.12 636.28 55.168 635.416 55.216C634.6 55.264 633.808 55.312 633.04 55.36C632.272 55.408 631.72 55.432 631.384 55.432L631.24 55.144L631.456 52.408L631.744 52.12C632.992 52.12 633.928 51.976 634.552 51.688C635.224 51.352 635.56 50.488 635.56 49.096C635.56 48.328 635.416 47.248 635.128 45.856C634.888 44.416 634.288 42.64 633.328 40.528L631.816 37.072H619.216L617.776 40.528C616.912 42.64 616.264 44.44 615.832 45.928C615.4 47.416 615.184 48.472 615.184 49.096C615.184 50.248 615.424 51.04 615.904 51.472C616.384 51.904 617.248 52.12 618.496 52.12L618.856 52.408L619.072 55.144L618.928 55.432C618.592 55.432 618.064 55.408 617.344 55.36C616.624 55.312 615.856 55.264 615.04 55.216C614.272 55.168 613.528 55.12 612.808 55.072C612.088 55.024 611.56 55 611.224 55H606.976C606.64 55 606.136 55.024 605.464 55.072C604.792 55.12 604.096 55.168 603.376 55.216C602.656 55.264 601.96 55.312 601.288 55.36C600.664 55.408 600.184 55.432 599.848 55.432L599.776 55.144L599.92 52.408L600.28 52.12C600.904 52.12 601.528 52.072 602.152 51.976C602.776 51.88 603.4 51.664 604.024 51.328C604.648 50.992 605.248 50.536 605.824 49.96C606.448 49.336 607.072 48.544 607.696 47.584C607.84 47.296 608.056 46.864 608.344 46.288C608.632 45.664 609.088 44.584 609.712 43.048C610.336 41.512 611.2 39.328 612.304 36.496C613.408 33.664 614.872 29.896 616.696 25.192L622.888 9.28L628 7.12H628.792ZM620.44 31.816H629.872L625.264 19.072L620.44 31.816Z" fill="white"/>
<defs>
<filter id="filter0_d_116_16" x="147" y="57" width="518" height="40" filterUnits="userSpaceOnUse" color-interpolation-filters="sRGB">
<feFlood flood-opacity="0" result="BackgroundImageFix"/>
<feColorMatrix in="SourceAlpha" type="matrix" values="0 0 0 0 0 0 0 0 0 0 0 0 0 0 0 0 0 0 127 0" result="hardAlpha"/>
<feOffset dx="3" dy="6"/>
<feGaussianBlur stdDeviation="9"/>
<feColorMatrix type="matrix" values="0 0 0 0 0 0 0 0 0 0 0 0 0 0 0 0 0 0 0.25 0"/>
<feBlend mode="normal" in2="BackgroundImageFix" result="effect1_dropShadow_116_16"/>
<feBlend mode="normal" in="SourceGraphic" in2="effect1_dropShadow_116_16" result="shape"/>
</filter>
</defs>
</svg>
